<svg width="48.000000" height="48.000000" viewBox="0 0 48 48" fill="none" xmlns="http://www.w3.org/2000/svg" xmlns:xlink="http://www.w3.org/1999/xlink">
	<desc>
			Created with Pixso.
	</desc>
	<defs>
		<clipPath id="clip993_510">
			<rect rx="0.000000" width="47.000000" height="26.096775" transform="translate(1.000000 10.500000)" fill="white" fill-opacity="0"/>
		</clipPath>
		<clipPath id="clip965_127">
			<rect rx="0.000000" width="47.000000" height="47.000000" transform="translate(0.500000 0.500000)" fill="white" fill-opacity="0"/>
		</clipPath>
	</defs>
	<rect rx="0.000000" width="47.000000" height="47.000000" transform="translate(0.500000 0.500000)" fill="#FFFFFF" fill-opacity="0"/>
	<g clip-path="url(#clip965_127)">
		<rect rx="0.000000" width="47.000000" height="26.096775" transform="translate(1.000000 10.500000)" fill="#FFFFFF" fill-opacity="0"/>
		<g clip-path="url(#clip993_510)">
			<path d="M43.65 22.28C43.07 22.28 42.5 22.39 41.96 22.6L36.22 17.82C36.36 17.29 36.46 16.75 36.46 16.18C36.46 12.81 33.8 10.09 30.48 10.09C27.16 10.09 24.5 12.81 24.5 16.18C24.5 17.15 24.73 18.05 25.12 18.86L18.16 27.24C17.88 27.18 17.6 27.16 17.31 27.15C16.89 27.15 16.48 27.23 16.09 27.33L9.95 21.08C10.06 20.69 10.13 20.28 10.13 19.84C10.13 17.14 8 14.96 5.34 14.96C2.69 14.96 0.56 17.14 0.56 19.84C0.56 22.54 2.69 24.71 5.34 24.71C5.77 24.71 6.18 24.64 6.57 24.53L12.71 30.78C12.59 31.19 12.53 31.61 12.53 32.03C12.53 34.73 14.66 36.9 17.31 36.9C19.97 36.9 22.1 34.73 22.1 32.03C22.1 31.45 21.99 30.91 21.81 30.39L28.78 22C29.32 22.16 29.89 22.28 30.48 22.28C31.42 22.27 32.35 22.04 33.19 21.59L38.93 26.38C38.89 26.63 38.86 26.89 38.86 27.15C38.86 29.85 40.99 32.03 43.65 32.03C46.3 32.03 48.43 29.85 48.43 27.15C48.43 24.45 46.3 22.28 43.65 22.28Z" fill="#2091F9" fill-opacity="1.000000" fill-rule="nonzero"/>
		</g>
	</g>
</svg>
