<svg width="48.000000" height="48.000000" viewBox="0 0 48 48" fill="none" xmlns="http://www.w3.org/2000/svg" xmlns:xlink="http://www.w3.org/1999/xlink">
	<desc>
			Created with Pixso.
	</desc>
	<defs>
		<clipPath id="clip993_514">
			<rect rx="0.000000" width="35.000156" height="47.000000" transform="translate(7.000000 0.500000)" fill="white" fill-opacity="0"/>
		</clipPath>
		<clipPath id="clip965_134">
			<rect rx="0.000000" width="47.000000" height="47.000000" transform="translate(0.500000 0.500000)" fill="white" fill-opacity="0"/>
		</clipPath>
	</defs>
	<rect rx="0.000000" width="47.000000" height="47.000000" transform="translate(0.500000 0.500000)" fill="#FFFFFF" fill-opacity="0"/>
	<g clip-path="url(#clip965_134)">
		<rect rx="0.000000" width="35.000156" height="47.000000" transform="translate(7.000000 0.500000)" fill="#FFFFFF" fill-opacity="0"/>
		<g clip-path="url(#clip993_514)">
			<path d="M15.56 33.99C14.75 33.18 15.17 33.4 13.21 32.88C12.33 32.64 11.55 32.18 10.84 31.63L6.61 42.06C6.2 43.07 6.96 44.17 8.05 44.12L12.96 43.94L16.35 47.52C17.09 48.32 18.4 48.07 18.81 47.06L23.67 35.1C22.66 35.66 21.54 35.99 20.38 35.99C18.56 35.99 16.85 35.28 15.56 33.99ZM42.22 42.06L37.99 31.63C37.28 32.18 36.5 32.64 35.61 32.88C33.65 33.41 34.08 33.18 33.27 33.99C31.98 35.28 30.27 35.99 28.45 35.99C27.29 35.99 26.17 35.66 25.16 35.1L30.01 47.06C30.42 48.07 31.74 48.32 32.48 47.52L35.86 43.94L40.78 44.12C41.87 44.17 42.63 43.07 42.22 42.06ZM31.04 31.87C32.47 30.41 32.63 30.54 34.66 29.98C35.96 29.62 36.97 28.59 37.32 27.26C38.02 24.6 37.84 24.92 39.74 22.97C40.69 22 41.06 20.59 40.71 19.26C40.02 16.6 40.01 16.97 40.71 14.31C41.06 12.99 40.69 11.57 39.74 10.6C37.84 8.65 38.02 8.97 37.32 6.31C36.97 4.99 35.96 3.95 34.66 3.59C32.06 2.88 32.37 3.07 30.47 1.12C29.52 0.15 28.13 -0.23 26.84 0.12C24.24 0.84 24.6 0.84 21.99 0.12C20.7 -0.23 19.31 0.15 18.36 1.12C16.46 3.07 16.77 2.88 14.17 3.59C12.87 3.95 11.86 4.99 11.51 6.31C10.81 8.97 10.99 8.65 9.09 10.6C8.14 11.57 7.77 12.99 8.12 14.31C8.81 16.97 8.81 16.6 8.12 19.26C7.77 20.59 8.14 22 9.09 22.97C10.99 24.92 10.81 24.6 11.51 27.26C11.86 28.59 12.87 29.62 14.17 29.98C16.26 30.55 16.41 30.46 17.79 31.87C19.02 33.13 20.95 33.36 22.43 32.41C23.02 32.04 23.71 31.83 24.41 31.83C25.12 31.83 25.81 32.04 26.4 32.41C27.88 33.36 29.81 33.13 31.04 31.87ZM15.61 16.49C15.61 11.52 19.55 7.49 24.41 7.49C29.28 7.49 33.22 11.52 33.22 16.49C33.22 21.46 29.28 25.49 24.41 25.49C19.55 25.49 15.61 21.46 15.61 16.49Z" fill="#2091F9" fill-opacity="1.000000" fill-rule="nonzero"/>
		</g>
	</g>
</svg>
