<svg width="32.000000" height="32.000000" viewBox="0 0 32 32" fill="none" xmlns="http://www.w3.org/2000/svg" xmlns:xlink="http://www.w3.org/1999/xlink">
	<desc>
			Created with Pixso.
	</desc>
	<defs>
		<clipPath id="clip964_17536">
			<rect rx="0.000000" width="31.000000" height="31.000000" transform="translate(0.500000 0.500000)" fill="white" fill-opacity="0"/>
		</clipPath>
	</defs>
	<rect rx="0.000000" width="31.000000" height="31.000000" transform="translate(0.500000 0.500000)" fill="#FFFFFF" fill-opacity="0"/>
	<g clip-path="url(#clip964_17536)">
		<path d="M18.23 8.77C17.77 9.09 17.25 9.31 16.69 9.43C16.14 9.55 15.57 9.55 15.02 9.45C14.46 9.34 13.93 9.13 13.46 8.82C12.99 8.51 12.59 8.1 12.28 7.63C11.96 7.16 11.75 6.64 11.64 6.08C11.53 5.53 11.53 4.96 11.65 4.41C11.76 3.85 11.99 3.33 12.31 2.87C12.63 2.4 13.04 2 13.51 1.7C14.45 1.08 15.59 0.86 16.7 1.08C17.8 1.3 18.76 1.95 19.39 2.88C20.01 3.82 20.24 4.96 20.03 6.06C19.81 7.17 19.16 8.14 18.23 8.77L18.23 8.77ZM17.05 3.47C16.82 3.3 16.56 3.18 16.28 3.12C16 3.06 15.71 3.05 15.43 3.1C15.15 3.15 14.89 3.26 14.65 3.41C14.41 3.57 14.2 3.77 14.05 4.01C13.89 4.25 13.78 4.51 13.72 4.79C13.67 5.07 13.67 5.36 13.73 5.64C13.79 5.92 13.91 6.18 14.07 6.42C14.24 6.65 14.45 6.85 14.69 7C15.16 7.28 15.72 7.37 16.25 7.26C16.79 7.14 17.25 6.82 17.56 6.36C17.86 5.91 17.98 5.35 17.89 4.81C17.79 4.28 17.49 3.79 17.05 3.47L17.05 3.47ZM22.6 3.53C23.21 3.12 23.95 2.93 24.68 3.01C25.42 3.08 26.11 3.41 26.63 3.93C27 4.3 27.27 4.76 27.42 5.27C27.57 5.77 27.6 6.3 27.5 6.82C27.39 7.33 27.17 7.82 26.83 8.23C26.5 8.63 26.08 8.95 25.59 9.16C25.01 9.4 24.37 9.47 23.75 9.34C23.13 9.22 22.56 8.91 22.12 8.46C21.78 8.13 21.53 7.72 21.37 7.28C21.21 6.83 21.15 6.36 21.2 5.88C21.24 5.41 21.39 4.96 21.64 4.55C21.88 4.14 22.21 3.8 22.6 3.53L22.6 3.53ZM23.62 6.95C23.82 7.15 24.09 7.26 24.37 7.26C24.51 7.26 24.65 7.23 24.78 7.18C24.9 7.13 25.02 7.05 25.12 6.95C25.22 6.85 25.3 6.73 25.35 6.6C25.4 6.47 25.43 6.34 25.43 6.2C25.43 6.06 25.4 5.92 25.35 5.79C25.29 5.66 25.22 5.55 25.12 5.45C24.92 5.25 24.65 5.13 24.37 5.13C24.23 5.13 24.09 5.16 23.96 5.21C23.83 5.26 23.72 5.34 23.62 5.44C23.52 5.54 23.44 5.66 23.39 5.79C23.33 5.92 23.31 6.06 23.31 6.2C23.31 6.48 23.42 6.75 23.62 6.95L23.62 6.95ZM5.65 25.39L9.5 25.39L9.5 27.53L5.65 27.53C4.98 27.52 4.33 27.25 3.86 26.77C3.39 26.29 3.12 25.64 3.12 24.96L3.12 21.12C2.83 21.11 2.55 21.04 2.29 20.92C2.04 20.8 1.8 20.62 1.61 20.41C1.41 20.21 1.25 19.96 1.14 19.69C1.04 19.43 0.99 19.14 1 18.85L1 14.21C1 13.21 1.4 12.25 2.1 11.54C2.8 10.84 3.75 10.43 4.74 10.43L8.65 10.43C8.12 11.06 7.72 11.78 7.48 12.57L4.74 12.57C4.3 12.58 3.89 12.75 3.59 13.06C3.29 13.37 3.12 13.78 3.12 14.21L3.12 18.96L5.25 18.96L5.25 24.96C5.24 25.02 5.25 25.08 5.27 25.13C5.28 25.19 5.31 25.24 5.35 25.28C5.44 25.35 5.54 25.39 5.65 25.39L5.65 25.39ZM21.16 11.54C20.81 11.19 20.4 10.91 19.95 10.72C19.49 10.53 19 10.43 18.51 10.43L13.24 10.43C12.25 10.44 11.3 10.84 10.6 11.54C9.9 12.25 9.5 13.21 9.5 14.22L9.5 20.97C9.49 21.55 9.71 22.11 10.11 22.53C10.3 22.74 10.54 22.91 10.79 23.03C11.05 23.16 11.33 23.22 11.62 23.23L11.62 28.17C11.62 28.51 11.68 28.84 11.81 29.15C11.94 29.46 12.13 29.75 12.36 29.99C12.75 30.34 13.23 30.58 13.75 30.65L18 30.65C18.59 30.57 19.14 30.27 19.53 29.82C19.93 29.36 20.13 28.77 20.12 28.17L20.12 23.23C20.41 23.22 20.69 23.15 20.95 23.03C21.21 22.91 21.44 22.74 21.63 22.53C21.83 22.32 21.99 22.08 22.1 21.81C22.2 21.54 22.25 21.25 22.25 20.97L22.25 14.21C22.25 13.21 21.86 12.26 21.16 11.54L21.16 11.54ZM20.12 21.07L18 21.07L18 28.17C17.99 28.28 17.95 28.39 17.87 28.47C17.83 28.51 17.79 28.54 17.73 28.57C17.68 28.59 17.63 28.6 17.57 28.59L14.15 28.59C14.04 28.59 13.93 28.54 13.85 28.46C13.78 28.39 13.73 28.28 13.72 28.17L13.72 21.07L11.62 21.07L11.62 14.21C11.62 13.78 11.79 13.37 12.09 13.06C12.39 12.75 12.8 12.58 13.24 12.57L18.51 12.57C18.83 12.57 19.14 12.67 19.41 12.85C19.67 13.03 19.88 13.29 20 13.59C20.08 13.79 20.12 14 20.12 14.21L20.12 21.07ZM26.09 27.53L22.25 27.53L22.25 25.39L26.07 25.39C26.18 25.39 26.28 25.35 26.37 25.28C26.41 25.24 26.44 25.19 26.47 25.14C26.49 25.08 26.5 25.02 26.5 24.96L26.5 18.96L28.62 18.96L28.62 14.21C28.62 13.78 28.45 13.37 28.15 13.06C27.85 12.75 27.44 12.58 27.01 12.57L24.26 12.57C24.02 11.78 23.62 11.06 23.1 10.43L27.01 10.43C28 10.44 28.94 10.84 29.64 11.54C30.34 12.25 30.74 13.21 30.75 14.21L30.75 18.85C30.75 19.43 30.53 19.99 30.13 20.41C29.74 20.83 29.2 21.08 28.62 21.11L28.62 24.96C28.62 25.64 28.36 26.29 27.88 26.77C27.41 27.25 26.77 27.52 26.09 27.53ZM7.37 2.99C6.74 2.99 6.12 3.18 5.6 3.53C5.07 3.88 4.66 4.39 4.43 4.97C4.19 5.56 4.12 6.2 4.25 6.82C4.37 7.44 4.67 8.01 5.12 8.46C5.56 8.91 6.13 9.22 6.75 9.34C7.37 9.47 8.02 9.4 8.6 9.16C9.18 8.92 9.68 8.5 10.03 7.98C10.38 7.45 10.56 6.83 10.56 6.2C10.56 5.35 10.22 4.53 9.62 3.93C9.33 3.63 8.98 3.4 8.59 3.24C8.2 3.07 7.79 2.99 7.37 2.99ZM7.37 7.27C7.23 7.27 7.09 7.24 6.96 7.19C6.83 7.13 6.72 7.05 6.62 6.95C6.52 6.85 6.44 6.74 6.39 6.61C6.33 6.48 6.31 6.34 6.31 6.2C6.31 5.92 6.42 5.64 6.62 5.44C6.82 5.24 7.09 5.13 7.37 5.13C7.65 5.13 7.92 5.25 8.12 5.45C8.32 5.65 8.43 5.92 8.43 6.2C8.43 6.48 8.32 6.75 8.12 6.95C7.92 7.15 7.65 7.26 7.37 7.27Z" fill="#2091F9" fill-opacity="1.000000" fill-rule="evenodd"/>
	</g>
</svg>
