<svg width="32.000000" height="32.000000" viewBox="0 0 32 32" fill="none" xmlns="http://www.w3.org/2000/svg" xmlns:xlink="http://www.w3.org/1999/xlink">
	<desc>
			Created with Pixso.
	</desc>
	<defs>
		<clipPath id="clip964_17543">
			<rect rx="0.000000" width="31.000000" height="31.000000" transform="translate(0.500000 0.500000)" fill="white" fill-opacity="0"/>
		</clipPath>
	</defs>
	<rect rx="0.000000" width="31.000000" height="31.000000" transform="translate(0.500000 0.500000)" fill="#FFFFFF" fill-opacity="0"/>
	<g clip-path="url(#clip964_17543)">
		<path d="M29.81 10.36L27.81 13.37C28.78 15.29 29.25 17.42 29.19 19.57C29.12 21.72 28.53 23.82 27.45 25.68L4.93 25.68C3.54 23.26 2.96 20.46 3.28 17.68C3.61 14.9 4.82 12.31 6.73 10.27C8.65 8.24 11.17 6.88 13.92 6.39C16.68 5.9 19.51 6.31 22.01 7.56L25.02 5.57C21.96 3.6 18.33 2.72 14.71 3.07C11.09 3.41 7.69 4.96 5.05 7.47C2.42 9.97 0.7 13.29 0.17 16.88C-0.36 20.48 0.33 24.15 2.14 27.31C2.42 27.8 2.83 28.21 3.32 28.49C3.81 28.78 4.36 28.93 4.93 28.93L27.44 28.93C28.01 28.94 28.57 28.79 29.07 28.5C29.57 28.22 29.98 27.8 30.27 27.31C31.76 24.71 32.51 21.76 32.44 18.76C32.36 15.77 31.46 12.86 29.83 10.34L29.81 10.36ZM13.9 21.47C14.2 21.78 14.56 22.02 14.96 22.18C15.35 22.34 15.77 22.43 16.2 22.43C16.63 22.43 17.05 22.34 17.45 22.18C17.84 22.02 18.2 21.78 18.5 21.47L27.7 7.68L13.9 16.88C13.6 17.18 13.36 17.54 13.2 17.93C13.03 18.33 12.95 18.75 12.95 19.18C12.95 19.6 13.03 20.03 13.2 20.42C13.36 20.81 13.6 21.17 13.9 21.47Z" fill="#2091F9" fill-opacity="1.000000" fill-rule="nonzero"/>
	</g>
</svg>
