<svg width="48.000000" height="48.000000" viewBox="0 0 48 48" fill="none" xmlns="http://www.w3.org/2000/svg" xmlns:xlink="http://www.w3.org/1999/xlink">
	<desc>
			Created with Pixso.
	</desc>
	<defs>
		<clipPath id="clip993_486">
			<rect rx="0.000000" width="47.000000" height="36.919998" transform="translate(0.500000 5.500000)" fill="white" fill-opacity="0"/>
		</clipPath>
		<clipPath id="clip964_18518">
			<rect rx="0.000000" width="47.000000" height="47.000000" transform="translate(0.500000 0.500000)" fill="white" fill-opacity="0"/>
		</clipPath>
	</defs>
	<rect rx="0.000000" width="47.000000" height="47.000000" transform="translate(0.500000 0.500000)" fill="#FFFFFF" fill-opacity="0"/>
	<g clip-path="url(#clip964_18518)">
		<rect rx="0.000000" width="47.000000" height="36.919998" transform="translate(0.500000 5.500000)" fill="#FFFFFF" fill-opacity="0"/>
		<g clip-path="url(#clip993_486)">
			<path d="M29.14 13.62L41.13 13.62L41.13 17.06L29.14 17.06L29.14 13.62Z" fill="#2091F9" fill-opacity="1.000000" fill-rule="nonzero"/>
			<path d="M29.14 22.23L41.13 22.23L41.13 25.68L29.14 25.68L29.14 22.23Z" fill="#2091F9" fill-opacity="1.000000" fill-rule="nonzero"/>
			<path d="M29.14 30.85L41.13 30.85L41.13 34.29L29.14 34.29L29.14 30.85Z" fill="#2091F9" fill-opacity="1.000000" fill-rule="nonzero"/>
			<path d="M44.56 5.01L3.43 5.01C2.52 5.01 1.65 5.37 1 6.02C0.36 6.66 0 7.54 0 8.45L0 39.46C0 40.37 0.36 41.25 1 41.89C1.65 42.54 2.52 42.9 3.43 42.9L44.56 42.9C45.47 42.9 46.34 42.54 46.99 41.89C47.63 41.25 47.99 40.37 47.99 39.46L47.99 8.45C47.99 7.54 47.63 6.66 46.99 6.02C46.34 5.37 45.47 5.01 44.56 5.01ZM3.43 8.45L22.28 8.45L22.28 39.46L3.43 39.46L3.43 8.45ZM25.71 39.46L25.71 8.45L44.56 8.45L44.57 39.46L25.71 39.46Z" fill="#2091F9" fill-opacity="1.000000" fill-rule="nonzero"/>
		</g>
	</g>
</svg>
